<svg width="1089" height="1080" viewBox="0 0 1089 1080" fill="none" xmlns="http://www.w3.org/2000/svg">
<path fill-rule="evenodd" clip-rule="evenodd" d="M540.129 990C539.796 989.999 539.464 989.998 539.132 989.997C538.958 989.996 538.783 989.996 538.609 989.995C539.005 989.998 539.402 990 539.798 990L540.129 990Z" fill="#4287F5"/>
<path d="M544.369 128.135C455.994 128.135 262.437 210.783 248.161 433.586C244.422 491.944 305.802 598.057 435.058 643.748C400.137 679.788 377.981 733.513 377.981 793.521C377.981 815.443 380.938 836.527 386.393 856.216C364.961 870.02 352.382 886.831 352.382 904.969C352.382 951.613 435.566 989.486 538.609 989.995C538.783 989.996 538.958 989.996 539.132 989.997C539.464 989.998 539.796 989.999 540.129 990L540.417 990L540.712 990C644.724 990 729.042 951.93 729.042 904.969C729.042 886.396 715.854 869.214 693.474 855.228C698.757 835.822 701.616 815.077 701.616 793.521C701.616 734.807 680.405 682.108 646.779 646.104C781.188 601.821 844.338 492.973 840.578 433.586C826.469 210.774 632.744 128.135 544.369 128.135Z" fill="#4287F5"/>
<path d="M727.716 709.292C743.376 682.322 779.96 685.319 796.946 704.078C800.342 707.919 802.895 712.609 804.062 717.619C804.263 718.503 804.096 719.453 803.623 720.254C803.149 721.055 802.409 721.641 801.538 721.89C800.667 722.138 799.729 722.032 798.903 721.602C798.079 721.172 797.435 720.453 797.139 719.597C795.844 715.92 793.596 712.693 790.733 710.082C776.041 696.571 747.669 700.027 741.972 716.424C735.601 732.869 745.086 754.537 755.98 772.578C766.735 789.041 771.161 816.514 757.363 836.508C744.307 856.022 724.738 866.639 702.967 870.979C697.293 871.971 691.32 872.506 684.52 871.755C679.761 871.3 675.483 868.967 672.648 865.122C669.812 861.286 668.651 856.253 669.4 851.277C670.149 846.301 672.74 841.832 676.58 839C680.421 836.161 685.198 835.191 689.88 836.157C691.947 836.722 695.075 836.943 698.309 836.735C726.134 834.654 750.802 812.248 735.479 783.525C726.043 761.965 714.864 736.19 727.716 709.292Z" fill="#4287F5"/>
<path d="M296.154 107.062C333.692 69.5228 471.54 94.5953 469.158 175.688C467.234 241.2 456.44 257.173 451.354 262.26C446.267 267.347 430.295 278.14 364.782 280.065C283.69 282.447 258.617 144.601 296.154 107.062Z" fill="#4287F5"/>
<path d="M810.32 107.537C772.783 69.9979 634.934 95.0704 637.316 176.163C639.241 241.675 650.034 257.648 655.121 262.735C660.207 267.822 676.18 278.616 741.693 280.54C822.785 282.922 847.857 145.076 810.32 107.537Z" fill="#4287F5"/>
</svg>
